<?xml version="1.0" encoding="UTF-8"?>
<svg xmlns="http://www.w3.org/2000/svg" xmlns:xlink="http://www.w3.org/1999/xlink" width="1000pt" height="1000pt" viewBox="0 0 1000 1000" version="1.1">
<g id="surface1">
<path style=" stroke:none;fill-rule:nonzero;fill:rgb(88.598633%,13.699341%,10.198975%);fill-opacity:1;" d="M 423.046875 508.121094 L 427 508.121094 C 438.867188 508.121094 442.824219 514.140625 442.824219 522.570313 C 442.824219 532.199219 437.835938 535.8125 424.765625 535.8125 L 423.046875 535.8125 Z M 692.34375 487.441406 L 717.355469 487.441406 L 717.355469 512.449219 L 692.34375 512.449219 Z M 266.058594 484.765625 L 290.277344 491 L 284.042969 515.222656 L 259.824219 508.988281 Z M 108.972656 462.203125 L 112.410156 462.203125 C 123.074219 462.203125 125.824219 469.425781 125.824219 474.929688 C 125.824219 483.183594 120.839844 486.96875 110.519531 486.96875 L 108.972656 486.96875 Z M 423.046875 461.6875 L 426.488281 461.6875 C 438.007813 461.6875 441.449219 467.015625 441.449219 474.070313 C 441.449219 483.183594 436.804688 486.621094 424.421875 486.621094 L 423.046875 486.621094 Z M 516.964844 435.890625 L 516.964844 564.015625 L 623.417969 564.015625 L 623.417969 531.859375 L 573.71875 531.859375 L 573.71875 435.890625 Z M 366.292969 435.890625 L 366.292969 564.015625 L 455.722656 564.015625 C 485.648438 564.015625 499.578125 548.367188 499.578125 528.585938 C 499.578125 517.582031 495.625 507.777344 479.457031 499.179688 C 492.355469 491.785156 496.136719 482.152344 496.136719 471.660156 C 496.136719 456.871094 487.882813 435.890625 446.433594 435.890625 Z M 52.21875 435.890625 L 52.21875 564.015625 L 108.972656 564.015625 L 108.972656 516.550781 C 124.277344 516.550781 131.5 529.960938 133.90625 564.015625 L 192.726563 564.015625 C 190.144531 539.421875 181.71875 518.269531 167.960938 502.621094 C 177.421875 496.085938 182.582031 486.105469 182.582031 474.242188 C 182.582031 455.152344 168.304688 435.890625 135.972656 435.890625 Z M 784.230469 435.886719 L 834.277344 499.175781 L 784.230469 564.011719 L 845.800781 564.011719 L 865.402344 538.558594 L 885.699219 564.011719 L 947.78125 564.011719 L 896.191406 498.832031 L 944.6875 435.886719 L 883.117188 435.886719 L 865.0625 459.449219 L 846.140625 435.886719 Z M 640.792969 564.011719 L 768.917969 564.011719 L 768.917969 435.886719 L 640.792969 435.886719 Z M 228.980469 421.992188 L 197.046875 546.074219 L 321.128906 578.007813 L 353.0625 453.925781 Z M 228.980469 421.992188 "/>
</g>
</svg>
